<?xml version="1.0" encoding="utf-8"?>
<svg viewBox="16.2477 16.7108 1044.4187 353.583" xmlns="http://www.w3.org/2000/svg">
  <g transform="matrix(0.10686399787664412, 0, 0, -0.10686399787664412, -41.63573455810547, 514.02587890625)" fill="#000000" stroke="none" style="">
    <path d="M1170 4649 c-184 -17 -318 -106 -388 -257 -23 -51 -27 -72 -30 -194&#10;l-4 -138 -77 0 c-103 0 -125 -12 -129 -72 -6 -94 67 -181 168 -197 l35 -6 5&#10;-360 c5 -341 6 -362 26 -405 60 -125 153 -194 292 -215 l42 -7 0 491 0 490&#10;143 3 142 3 -3 39 c-7 81 -79 179 -156 211 -17 7 -53 16 -80 20 l-48 8 4 101&#10;c4 114 24 163 80 192 31 16 144 16 193 0 18 -6 23 3 48 86 32 110 32 114 8&#10;154 -30 50 -120 67 -271 53z"/>
    <path d="M8356 4616 c-89 -33 -136 -97 -136 -184 0 -126 81 -202 214 -202 175&#10;1 269 156 182 303 -45 78 -168 117 -260 83z"/>
    <path d="M4869 4596 c-94 -33 -185 -122 -218 -212 -19 -49 -21 -77 -21 -264&#10;l0 -210 -62 63 c-47 48 -78 69 -121 86 -128 47 -284 35 -424 -34 -129 -64&#10;-245 -217 -290 -385 -14 -51 -18 -104 -17 -245 0 -168 2 -185 27 -262 88 -263&#10;321 -403 588 -353 83 16 156 57 226 127 35 34 66 63 68 63 3 0 5 -9 5 -20 0&#10;-50 63 -124 121 -140 18 -6 80 -10 136 -10 l103 0 0 905 0 905 -42 0 c-24 -1&#10;-59 -7 -79 -14z m-394 -815 c56 -25 122 -102 140 -164 18 -61 20 -242 4 -319&#10;-33 -153 -129 -237 -272 -238 -37 0 -82 6 -101 14 -95 40 -156 145 -164 286&#10;-6 109 0 115 112 115 45 1 91 6 103 13 29 16 37 63 29 170 -5 54 -3 98 3 115&#10;9 24 15 27 58 27 27 0 66 -9 88 -19z"/>
    <path d="M1655 4561 c-162 -75 -147 -305 24 -366 147 -52 291 41 291 187 -1&#10;125 -79 198 -213 198 -39 0 -77 -7 -102 -19z"/>
    <path d="M2910 4073 c-106 -29 -166 -72 -264 -188 l-25 -30 -1 103 c0 114 5&#10;109 -81 88 -107 -25 -194 -94 -246 -196 l-28 -55 0 -365 c0 -357 1 -366 22&#10;-413 50 -107 169 -195 285 -212 l47 -7 3 398 c4 439 5 444 68 524 82 104 269&#10;109 340 10 45 -63 52 -110 59 -400 6 -262 8 -277 30 -320 36 -68 76 -115 129&#10;-148 49 -31 138 -62 180 -62 l23 0 -3 468 -4 467 -27 80 c-29 87 -76 158 -130&#10;199 -84 64 -257 91 -377 59z"/>
    <path d="M5815 4080 c-257 -41 -434 -181 -511 -405 -36 -105 -46 -312 -20&#10;-427 75 -337 378 -521 768 -468 271 36 464 203 534 460 25 91 25 311 0 399&#10;-60 218 -215 369 -433 425 -77 20 -257 28 -338 16z m239 -292 c25 -8 59 -31&#10;88 -59 65 -65 88 -142 88 -293 0 -224 -62 -334 -208 -371 -154 -40 -302 30&#10;-353 165 -13 33 -23 89 -26 141 -7 108 1 119 90 120 34 0 78 5 97 12 45 15 59&#10;54 59 164 1 45 5 93 11 107 8 23 15 26 61 26 28 0 70 -6 93 -12z"/>
    <path d="M9450 4078 c-154 -22 -306 -99 -395 -201 -56 -64 -109 -170 -131&#10;-262 -22 -93 -23 -287 -1 -376 83 -344 399 -522 803 -454 250 42 436 215 501&#10;465 23 89 23 292 0 380 -53 203 -188 352 -375 414 -131 44 -260 55 -402 34z&#10;m286 -314 c99 -61 141 -180 131 -373 -8 -168 -54 -262 -150 -307 -72 -33 -141&#10;-39 -218 -20 -90 23 -137 60 -178 139 -30 59 -35 77 -39 165 -4 97 -4 100 19&#10;113 13 7 64 16 112 19 128 9 133 16 129 165 -2 63 0 120 4 126 4 7 31 10 74 7&#10;53 -3 78 -10 116 -34z"/>
    <path d="M7677 4053 c-12 -22 -252 -849 -267 -922 l-17 -84 -11 72 c-21 124&#10;-160 590 -199 664 -63 120 -176 211 -312 251 -48 14 -141 22 -141 13 0 -8 438&#10;-1226 445 -1236 4 -7 78 -11 209 -11 l204 0 177 473 c176 470 177 472 172 539&#10;-8 128 -90 218 -219 242 -20 4 -38 3 -41 -1z"/>
    <path d="M8532 4049 c-100 -19 -206 -104 -251 -199 l-26 -55 -3 -335 c-2 -225&#10;0 -352 8 -387 15 -67 79 -165 134 -202 47 -32 151 -71 191 -71 l25 0 0 630 c0&#10;708 9 636 -78 619z"/>
    <path d="M1830 3996 c-98 -31 -183 -108 -229 -205 l-26 -56 -3 -310 c-4 -326&#10;2 -395 40 -469 51 -100 172 -184 281 -194 l47 -5 0 627 0 626 -37 -1 c-21 -1&#10;-54 -6 -73 -13z"/>
    <path d="M4173 2534 c12 -116 98 -231 211 -285 98 -46 126 -46 482 10 176 28&#10;338 51 359 51 22 0 187 -23 368 -51 293 -45 335 -50 388 -40 70 12 162 64 210&#10;118 41 48 87 146 95 206 l7 47 -1063 0 -1063 0 6 -56z" style="fill: rgb(234, 91, 12);"/>
    <path d="M6604 2562 c-61 -25 -119 -69 -148 -110 -54 -79 -56 -94 -56 -496 0&#10;-370 0 -371 24 -422 33 -72 84 -125 153 -160 l58 -29 1715 0 1715 0 59 24 c69&#10;28 133 88 168 158 23 48 23 50 23 433 0 383 0 385 -24 437 -26 58 -86 120&#10;-153 155 l-43 23 -1725 2 c-1604 2 -1728 1 -1766 -15z m144 -410 c1 -68 6&#10;-122 10 -120 110 58 165 61 227 14 58 -45 80 -97 80 -196 0 -94 -19 -145 -72&#10;-195 -72 -66 -212 -74 -319 -20 l-59 31 -3 294 c-1 162 0 301 3 308 3 9 23 12&#10;67 10 l63 -3 3 -123z m1482 110 c40 -32 25 -93 -27 -113 -28 -10 -80 7 -93 31&#10;-38 70 56 134 120 82z m-274 -193 c25 -7 48 -17 50 -23 7 -19 -23 -91 -37 -90&#10;-8 1 -35 8 -60 14 -51 15 -94 8 -103 -15 -8 -21 19 -42 100 -76 101 -42 133&#10;-84 124 -164 -9 -80 -81 -120 -204 -113 -45 3 -100 13 -123 22 l-41 17 15 45&#10;c17 49 18 50 87 29 64 -19 111 -19 131 1 25 26 -1 54 -81 86 -104 42 -140 88&#10;-134 168 6 88 136 134 276 99z m794 -24 c43 -41 50 -79 50 -267 l0 -168 -64 0&#10;-65 0 -3 160 c-3 135 -6 162 -20 177 -26 25 -82 20 -123 -12 l-35 -26 0 -150&#10;0 -149 -65 0 -65 0 0 230 0 230 40 0 c24 0 42 -5 45 -12 2 -7 9 -26 15 -42&#10;l11 -29 32 31 c48 46 93 63 160 59 47 -3 62 -8 87 -32z m456 16 c23 -10 51&#10;-33 64 -51 27 -38 50 -110 50 -157 l0 -33 -161 0 -161 0 7 -27 c3 -16 20 -41&#10;36 -58 25 -26 37 -30 82 -30 42 0 63 6 96 28 24 16 44 27 45 25 49 -69 49 -68&#10;30 -90 -34 -38 -113 -68 -182 -68 -73 0 -124 19 -169 62 -89 86 -81 270 15&#10;361 59 56 170 73 248 38z m450 8 c24 -6 47 -16 50 -21 3 -5 1 -30 -6 -54 -10&#10;-35 -17 -44 -29 -39 -42 16 -111 27 -135 21 -47 -12 -26 -63 34 -81 133 -40&#10;196 -126 154 -212 -28 -56 -82 -83 -170 -83 -70 0 -168 22 -179 40 -8 13 16&#10;90 28 90 5 0 33 -7 63 -16 152 -44 199 34 53 87 -86 32 -130 73 -136 130 -7&#10;61 14 101 69 128 49 24 132 28 204 10z m410 0 c25 -7 48 -17 50 -23 7 -19 -23&#10;-91 -37 -90 -8 1 -35 8 -60 14 -51 15 -94 8 -103 -15 -8 -21 19 -42 100 -76&#10;101 -42 133 -84 124 -164 -9 -80 -81 -120 -204 -113 -45 3 -100 13 -123 22&#10;l-41 17 15 45 c17 49 18 50 87 29 64 -19 111 -19 131 1 25 26 -1 54 -81 86&#10;-104 42 -140 88 -134 168 6 88 136 134 276 99z m-2786 -153 c0 -142 2 -155 22&#10;-181 18 -23 27 -26 55 -22 18 3 47 15 63 27 l30 21 0 155 0 154 70 0 70 0 0&#10;-230 0 -230 -43 0 c-43 0 -44 1 -56 41 l-13 41 -31 -30 c-18 -16 -46 -37 -64&#10;-46 -45 -23 -130 -21 -171 4 -54 33 -62 66 -62 270 l0 180 65 0 65 0 0 -154z&#10;m960 -76 l0 -230 -65 0 -65 0 0 230 0 230 65 0 65 0 0 -230z" style="fill: rgb(234, 91, 12);"/>
    <path d="M6788 1948 l-38 -22 0 -98 0 -99 37 -15 c30 -13 44 -14 74 -5 52 16&#10;73 52 74 127 0 69 -16 107 -52 123 -34 16 -53 14 -95 -11z" style="fill: rgb(234, 91, 12);"/>
    <path d="M9080 1973 c-21 -8 -50 -34 -61 -55 -9 -17 -2 -18 86 -18 102 0 113&#10;6 78 49 -18 22 -75 35 -103 24z" style="fill: rgb(234, 91, 12);"/>
  </g>
</svg>